<mxfile host="Electron" modified="2024-05-05T15:32:17.196Z" agent="Mozilla/5.0 (X11; Linux x86_64) AppleWebKit/537.36 (KHTML, like Gecko) draw.io/24.2.5 Chrome/120.0.6099.109 Electron/28.1.0 Safari/537.36" etag="LKoXofP9MBrHlBTodkAm" version="24.2.5" type="device">
  <diagram name="PÃ¡gina-1" id="E-DP9fMv0TR5NF7smadX">
    <mxGraphModel dx="1364" dy="843" grid="1" gridSize="6" guides="1" tooltips="1" connect="1" arrows="1" fold="1" page="1" pageScale="1" pageWidth="919" pageHeight="600" math="1" shadow="0">
      <root>
        <mxCell id="0" />
        <mxCell id="1" parent="0" />
        <mxCell id="CFI3S7LzRvd9iii7xQHX-2" value="" style="rounded=0;whiteSpace=wrap;html=1;fillColor=#E6E6E6;" parent="1" vertex="1">
          <mxGeometry x="552" y="24" width="306" height="504" as="geometry" />
        </mxCell>
        <mxCell id="CFI3S7LzRvd9iii7xQHX-3" value="\(\Omega\)" style="text;html=1;align=center;verticalAlign=middle;whiteSpace=wrap;rounded=0;fontSize=31;" parent="1" vertex="1">
          <mxGeometry x="858" y="24" width="60" height="48" as="geometry" />
        </mxCell>
        <mxCell id="CFI3S7LzRvd9iii7xQHX-4" value="\(\omega_1 = (FFF)\)" style="text;html=1;align=center;verticalAlign=middle;whiteSpace=wrap;rounded=0;fontSize=31;" parent="1" vertex="1">
          <mxGeometry x="612" y="42" width="216" height="48" as="geometry" />
        </mxCell>
        <mxCell id="CFI3S7LzRvd9iii7xQHX-5" value="\(\omega_2 = (FFS)\)" style="text;html=1;align=center;verticalAlign=middle;whiteSpace=wrap;rounded=0;fontSize=31;" parent="1" vertex="1">
          <mxGeometry x="612" y="102" width="216" height="48" as="geometry" />
        </mxCell>
        <mxCell id="CFI3S7LzRvd9iii7xQHX-6" value="\(\omega_3 = (FSF)\)" style="text;html=1;align=center;verticalAlign=middle;whiteSpace=wrap;rounded=0;fontSize=31;" parent="1" vertex="1">
          <mxGeometry x="612" y="162" width="216" height="48" as="geometry" />
        </mxCell>
        <mxCell id="CFI3S7LzRvd9iii7xQHX-7" value="\(\omega_4 = (SFF)\)" style="text;html=1;align=center;verticalAlign=middle;whiteSpace=wrap;rounded=0;fontSize=31;" parent="1" vertex="1">
          <mxGeometry x="612" y="222" width="216" height="48" as="geometry" />
        </mxCell>
        <mxCell id="CFI3S7LzRvd9iii7xQHX-8" value="\(\omega_5 = (FSS)\)" style="text;html=1;align=center;verticalAlign=middle;whiteSpace=wrap;rounded=0;fontSize=31;" parent="1" vertex="1">
          <mxGeometry x="612" y="282" width="216" height="48" as="geometry" />
        </mxCell>
        <mxCell id="CFI3S7LzRvd9iii7xQHX-9" value="\(\omega_6 = (SFS)\)" style="text;html=1;align=center;verticalAlign=middle;whiteSpace=wrap;rounded=0;fontSize=31;" parent="1" vertex="1">
          <mxGeometry x="612" y="342" width="216" height="48" as="geometry" />
        </mxCell>
        <mxCell id="CFI3S7LzRvd9iii7xQHX-10" value="\(\omega_7 = (SSF)\)" style="text;html=1;align=center;verticalAlign=middle;whiteSpace=wrap;rounded=0;fontSize=31;" parent="1" vertex="1">
          <mxGeometry x="612" y="402" width="216" height="48" as="geometry" />
        </mxCell>
        <mxCell id="CFI3S7LzRvd9iii7xQHX-11" value="\(\omega_8 = (SSS)\)" style="text;html=1;align=center;verticalAlign=middle;whiteSpace=wrap;rounded=0;fontSize=31;" parent="1" vertex="1">
          <mxGeometry x="612" y="462" width="216" height="48" as="geometry" />
        </mxCell>
        <mxCell id="CFI3S7LzRvd9iii7xQHX-12" value="" style="ellipse;whiteSpace=wrap;html=1;fillColor=#000000;" parent="1" vertex="1">
          <mxGeometry x="588" y="64" width="8" height="8" as="geometry" />
        </mxCell>
        <mxCell id="CFI3S7LzRvd9iii7xQHX-13" value="" style="ellipse;whiteSpace=wrap;html=1;fillColor=#000000;" parent="1" vertex="1">
          <mxGeometry x="588" y="124" width="8" height="8" as="geometry" />
        </mxCell>
        <mxCell id="CFI3S7LzRvd9iii7xQHX-14" value="" style="ellipse;whiteSpace=wrap;html=1;fillColor=#000000;" parent="1" vertex="1">
          <mxGeometry x="588" y="184" width="8" height="8" as="geometry" />
        </mxCell>
        <mxCell id="CFI3S7LzRvd9iii7xQHX-15" value="" style="ellipse;whiteSpace=wrap;html=1;fillColor=#000000;" parent="1" vertex="1">
          <mxGeometry x="588" y="244" width="8" height="8" as="geometry" />
        </mxCell>
        <mxCell id="CFI3S7LzRvd9iii7xQHX-16" value="" style="ellipse;whiteSpace=wrap;html=1;fillColor=#000000;" parent="1" vertex="1">
          <mxGeometry x="588" y="304" width="8" height="8" as="geometry" />
        </mxCell>
        <mxCell id="CFI3S7LzRvd9iii7xQHX-17" value="" style="ellipse;whiteSpace=wrap;html=1;fillColor=#000000;" parent="1" vertex="1">
          <mxGeometry x="588" y="364" width="8" height="8" as="geometry" />
        </mxCell>
        <mxCell id="CFI3S7LzRvd9iii7xQHX-18" value="" style="ellipse;whiteSpace=wrap;html=1;fillColor=#000000;" parent="1" vertex="1">
          <mxGeometry x="588" y="424" width="8" height="8" as="geometry" />
        </mxCell>
        <mxCell id="CFI3S7LzRvd9iii7xQHX-19" value="" style="ellipse;whiteSpace=wrap;html=1;fillColor=#000000;" parent="1" vertex="1">
          <mxGeometry x="588" y="484" width="8" height="8" as="geometry" />
        </mxCell>
        <mxCell id="CFI3S7LzRvd9iii7xQHX-20" value="" style="endArrow=classic;html=1;rounded=0;strokeWidth=3;" parent="1" edge="1">
          <mxGeometry width="50" height="50" relative="1" as="geometry">
            <mxPoint x="48" y="528" as="sourcePoint" />
            <mxPoint x="456" y="528" as="targetPoint" />
          </mxGeometry>
        </mxCell>
        <mxCell id="CFI3S7LzRvd9iii7xQHX-21" value="" style="endArrow=none;html=1;rounded=0;strokeWidth=2;" parent="1" edge="1">
          <mxGeometry width="50" height="50" relative="1" as="geometry">
            <mxPoint x="96" y="540" as="sourcePoint" />
            <mxPoint x="96" y="528" as="targetPoint" />
          </mxGeometry>
        </mxCell>
        <mxCell id="CFI3S7LzRvd9iii7xQHX-22" value="" style="endArrow=none;html=1;rounded=0;strokeWidth=2;" parent="1" edge="1">
          <mxGeometry width="50" height="50" relative="1" as="geometry">
            <mxPoint x="192" y="540" as="sourcePoint" />
            <mxPoint x="192" y="528" as="targetPoint" />
          </mxGeometry>
        </mxCell>
        <mxCell id="CFI3S7LzRvd9iii7xQHX-23" value="" style="endArrow=none;html=1;rounded=0;strokeWidth=2;" parent="1" edge="1">
          <mxGeometry width="50" height="50" relative="1" as="geometry">
            <mxPoint x="288" y="540" as="sourcePoint" />
            <mxPoint x="288" y="528" as="targetPoint" />
          </mxGeometry>
        </mxCell>
        <mxCell id="CFI3S7LzRvd9iii7xQHX-24" value="" style="endArrow=none;html=1;rounded=0;strokeWidth=2;" parent="1" edge="1">
          <mxGeometry width="50" height="50" relative="1" as="geometry">
            <mxPoint x="384" y="540" as="sourcePoint" />
            <mxPoint x="384" y="528" as="targetPoint" />
          </mxGeometry>
        </mxCell>
        <mxCell id="CFI3S7LzRvd9iii7xQHX-25" value="0" style="text;html=1;align=center;verticalAlign=middle;whiteSpace=wrap;rounded=0;fontSize=25;" parent="1" vertex="1">
          <mxGeometry x="66" y="534" width="60" height="48" as="geometry" />
        </mxCell>
        <mxCell id="CFI3S7LzRvd9iii7xQHX-27" value="1" style="text;html=1;align=center;verticalAlign=middle;whiteSpace=wrap;rounded=0;fontSize=25;" parent="1" vertex="1">
          <mxGeometry x="162" y="534" width="60" height="48" as="geometry" />
        </mxCell>
        <mxCell id="CFI3S7LzRvd9iii7xQHX-28" value="2" style="text;html=1;align=center;verticalAlign=middle;whiteSpace=wrap;rounded=0;fontSize=25;" parent="1" vertex="1">
          <mxGeometry x="258" y="534" width="60" height="48" as="geometry" />
        </mxCell>
        <mxCell id="CFI3S7LzRvd9iii7xQHX-29" value="3" style="text;html=1;align=center;verticalAlign=middle;whiteSpace=wrap;rounded=0;fontSize=25;" parent="1" vertex="1">
          <mxGeometry x="354" y="534" width="60" height="48" as="geometry" />
        </mxCell>
        <mxCell id="CFI3S7LzRvd9iii7xQHX-40" value="\(\mathbb{R}\)" style="text;html=1;align=center;verticalAlign=middle;whiteSpace=wrap;rounded=0;fontSize=31;" parent="1" vertex="1">
          <mxGeometry x="442" y="528" width="60" height="48" as="geometry" />
        </mxCell>
      </root>
    </mxGraphModel>
  </diagram>
</mxfile>
